<svg width="30" height="30" viewBox="0 0 30 30" fill="none" xmlns="http://www.w3.org/2000/svg">
<path d="M19.7788 9.25751V5.90905M19.7788 5.90905L13.9039 0H0V27.9695H14.2956M19.7788 5.90905H13.9039V3.34846M8.61651 5.90905H3.42702M16.2539 10.8333H6.95196M13.9039 14.4772H6.95196M11.8477 18.0226H6.95196M11.8477 21.6665H6.95196M18.6038 15.3635C18.6038 15.3635 16.3093 15.5044 15.2747 16.7423C14.1165 18.1282 13.9039 19.2044 13.9039 20.9771C13.9039 22.8711 15.0157 24.4744 16.2539 25.9013C17.0557 26.8254 17.4067 27.7358 18.6038 27.9695C19.5241 28.1491 20.9538 27.4771 20.9538 27.4771C20.9538 27.4771 22.3198 28.1286 23.2058 27.9695C24.4063 27.7539 25.5558 25.9013 25.5558 25.9013C25.5558 25.9013 27.6629 23.5446 27.9057 21.6665C28.1389 19.8626 27.9959 18.5257 26.8287 17.1362C25.9226 16.0576 25.0853 15.5623 23.6954 15.3635C22.6246 15.2104 20.9538 15.7575 20.9538 15.7575C20.9538 15.7575 20.4764 14.617 20.1705 13.8863M20.1705 13.8863C19.5587 13.1555 18.6038 12.0151 18.6038 12.0151M20.1705 13.8863C21.0345 14.1974 21.6564 14.1974 22.5204 13.8863C23.7973 13.4265 24.7725 11.2272 24.7725 11.2272C24.7725 11.2272 23.381 10.5946 22.5204 10.8333C21.7832 11.0377 21.4269 11.4107 20.9538 12.0151C20.4661 12.638 20.2727 13.1001 20.1705 13.8863ZM22.7163 17.5302C22.7163 17.5302 21.6681 18.0128 20.9538 18.0226C20.2026 18.0329 19.0934 17.5302 19.0934 17.5302M4.01451 9.84841C4.55528 9.84841 4.99366 10.2893 4.99366 10.8333C4.99366 11.3772 4.55528 11.8181 4.01451 11.8181C3.47374 11.8181 3.03536 11.3772 3.03536 10.8333C3.03536 10.2893 3.47374 9.84841 4.01451 9.84841ZM4.99366 14.4772C4.99366 13.9333 4.55528 13.4923 4.01451 13.4923C3.47374 13.4923 3.03536 13.9333 3.03536 14.4772C3.03536 15.0211 3.47374 15.462 4.01451 15.462C4.55528 15.462 4.99366 15.0211 4.99366 14.4772ZM4.99366 18.0226C4.99366 17.4787 4.55528 17.0377 4.01451 17.0377C3.47374 17.0377 3.03536 17.4787 3.03536 18.0226C3.03536 18.5665 3.47374 19.0074 4.01451 19.0074C4.55528 19.0074 4.99366 18.5665 4.99366 18.0226ZM4.99366 21.6665C4.99366 21.1226 4.55528 20.6817 4.01451 20.6817C3.47374 20.6817 3.03536 21.1226 3.03536 21.6665C3.03536 22.2104 3.47374 22.6513 4.01451 22.6513C4.55528 22.6513 4.99366 22.2104 4.99366 21.6665Z" transform="translate(1 1)" stroke="url(#paint0_linear)"/>
<defs>
<linearGradient id="paint0_linear" x2="1" gradientUnits="userSpaceOnUse" gradientTransform="translate(28) scale(28) rotate(90)">
<stop stop-color="#DF4545"/>
<stop offset="1" stop-color="#004982"/>
</linearGradient>
</defs>
</svg>
